<svg width="5" height="15" viewBox="0 0 5 15" fill="none" xmlns="http://www.w3.org/2000/svg">
<path d="M3.88905 5.55556H2.77794V0.277778C2.77794 0.124167 2.6535 0 2.50016 0C2.34683 0 2.22239 0.124167 2.22239 0.277778V5.55556H1.11127C0.957941 5.55556 0.833496 5.67972 0.833496 5.83333V9.16667C0.833496 9.32028 0.957941 9.44444 1.11127 9.44444H2.22239V14.7222C2.22239 14.8758 2.34683 15 2.50016 15C2.6535 15 2.77794 14.8758 2.77794 14.7222V9.44444H3.88905C4.04239 9.44444 4.16683 9.32028 4.16683 9.16667V5.83333C4.16683 5.67972 4.04239 5.55556 3.88905 5.55556ZM3.61127 8.88889H1.38905V6.11111H3.61127V8.88889Z" fill="#F7F7F7"/>
</svg>
