<svg width="4" height="15" viewBox="0 0 4 15" fill="none" xmlns="http://www.w3.org/2000/svg">
<path d="M3.16688 1.11111H2.05577V0.277778C2.05577 0.124167 1.93133 0 1.778 0C1.62466 0 1.50022 0.124167 1.50022 0.277778V1.11111H0.389106C0.235773 1.11111 0.111328 1.23528 0.111328 1.38889V4.72222C0.111328 4.87583 0.235773 5 0.389106 5H1.50022V14.7222C1.50022 14.8758 1.62466 15 1.778 15C1.93133 15 2.05577 14.8758 2.05577 14.7222V5H3.16688C3.32022 5 3.44466 4.87583 3.44466 4.72222V1.38889C3.44466 1.23528 3.32022 1.11111 3.16688 1.11111ZM2.88911 4.44444H0.666884V1.66667H2.88911V4.44444Z" fill="#F7F7F7"/>
</svg>
