<svg width="4" height="15" viewBox="0 0 4 15" fill="none" xmlns="http://www.w3.org/2000/svg">
<path d="M3.61122 10H2.50011V0.277778C2.50011 0.124167 2.37566 0 2.22233 0C2.069 0 1.94455 0.124167 1.94455 0.277778V10H0.833442C0.680109 10 0.555664 10.1242 0.555664 10.2778V13.6111C0.555664 13.7647 0.680109 13.8889 0.833442 13.8889H1.94455V14.7222C1.94455 14.8758 2.069 15 2.22233 15C2.37566 15 2.50011 14.8758 2.50011 14.7222V13.8889H3.61122C3.76455 13.8889 3.889 13.7647 3.889 13.6111V10.2778C3.889 10.1242 3.76455 10 3.61122 10ZM3.33344 13.3333H1.11122V10.5556H3.33344V13.3333Z" fill="#F7F7F7"/>
</svg>
